<?xml version="1.0" encoding="UTF-8" standalone="no"?><svg id="Layer_1" xmlns="http://www.w3.org/2000/svg" viewBox="0 0 1795.4 1523.6"><style>.st0{fill:none}.st1{fill:#1e1e1e}.st2{fill:#1a1a1a}.st3{fill:#333}.st4{fill:#fff}.st5{fill:#4d4d4d}.st6{fill:#3e3e3e}.st7{fill:#474746}.st8{fill:#b1b0b0}</style><title>nibiru_1</title><g id="XMLID_41_"><path transform="rotate(-169.997 897.667 761.836)" class="st0" d="M97.7 129.3h1600v1265H97.7z"/><path d="M952.1 625.7s-68.2-16.1-229.4 5.2-311.4 48.3-416.9 83.9c-83.1 28-72.1 46.2-72.1 46.2l11.2 62.9L376.7 837l106.6-28.9-1.2 6.9 78-21.8 452.8-74.5-60.8-93z"/><path class="st1" d="M547.1 884.3s-82-27.3-194.1-56.6C232.6 796.3 233.7 761 233.7 761l10.7 158.3s-9.9 21.6 83 59.3 210.1 75.6 210.1 75.6l9.6-169.9z"/><path class="st2" d="M1134.4 634.5s.2-7.1 1-23.2-8.1-17.7-22.4-17.1c-14.3.5-56.4 14.4-56.4 14.4l-99.9 25s-29 4.2-78.2 11.6c-49.7 7.5-104.8 13-172.4 33.6C594 712.9 549.2 733.4 537.7 776c-11.6 42.6-3.1 132.5-3.1 132.5l58.7 12.4 541.1-286.4z"/><path class="st3" d="M1227 650.8l-91.2-24.2s-8.2-5.5-30.9 2.7c-24.5 8.8-131.3 41.8-261.3 59.5-130 17.7-208.9 44.4-240.7 75.3-32 31-19.2 142.9-19.2 142.9L1227 650.8z"/><path d="M731.3 354.7S615 378.4 605.7 494.5s-7 155.1-7 155.1L475 671.5s-6-127.1 17.2-207.2c25.8-88.9 99.2-98.2 99.2-98.2l139.9-11.4z"/><path class="st2" d="M1039.8 554.8S981.9 433.9 871.2 388s-143.6-32.4-143.6-32.4l-140 10.9s85.2-14.1 200.7 59.8c87.6 56.1 133.5 152.4 159.7 205.9 11.5 23.5 25.6 39 25.6 39l110-36.5-43.8-79.9z"/><path d="M989.8 659.8s-24.9 3.8-23.8 14.1c1.5 14.5 34.6 31.5 34.6 31.5l158.2-36.1s-17.6-15.3-36.1-25.7c-18.5-10.4-32.2-1.6-32.2-1.6"/><path class="st2" d="M606.9 1080.7l-20.9-13.8s-6.1 6-26.4 5.5c-13.8 3.7-22.2 5.2-22.2 5.2s-6-6.1-13-15.5 16.9-29.5 16.9-29.5l70.7 19.6-5.1 28.5z"/><path class="st4" d="M1593.4 668.7s13.6-25.3-163.3-47.1c-152.1-18.7-151.8-8.5-151.8-8.5s-27.2 27.7-180.1 65.7c-292.4 72.7-475 33-496 152.2l-7.1 57.6 3.9 6.8 2.6 163.9-.5 3s-1 40.4 6.8 76.3 14.5 44.2 65.5 77.6 98.5 63.1 151.4 91.7c66.6 36.1 138.3 64.9 252.6 24.2 63.8-22.7 147.2-61.1 223-100.5 94-48.9 176.5-98.9 199.9-115.3 45.2-31.6 55.9-56.7 55.9-56.7l37.2-390.9z"/><path class="st3" d="M1130.5 702.8l-26.6-4.7 88.3-23 24.6 4.4-35.1 26.3z"/><ellipse transform="rotate(-10.423 1161.757 698.96)" cx="1162.1" cy="698.9" rx="33.9" ry="24.5"/><path d="M1146.7 724.3l1.1-3.9c1.8.5 3.6.8 5.5 1.1l-.5 4c-.8-.1-1.6-.2-2.4-.4-1.3-.2-2.5-.5-3.7-.8zm11.3-2.5c1.9 0 3.8-.1 5.7-.4l.5 4c-2.1.3-4.1.4-6.2.4v-4zm-21.8-2.3l2.3-3.3c1.4 1 3.1 1.9 4.8 2.7l-1.6 3.7c-1.9-.9-3.8-1.9-5.5-3.1zm32.1 1.1c1.9-.4 3.7-1 5.4-1.6l1.4 3.7c-1.9.7-3.9 1.3-5.9 1.8l-.9-3.9zm-39.8-9.9l3.6-1.8c.8 1.5 1.8 3 3.1 4.4l-2.9 2.7c-1.7-1.6-2.9-3.4-3.8-5.3zm49.5 6.4c1.7-.9 3.3-1.8 4.8-2.9l2.3 3.3c-1.7 1.2-3.4 2.3-5.3 3.2l-1.8-3.6zm-51.3-11.7c-.4-2.2-.4-4.4-.1-6.5l4 .6c-.3 1.8-.2 3.5.1 5.2l-1.9.5-2 .4-.1-.2zm59.7 5.8c1.4-1.3 2.6-2.7 3.6-4.2l3.3 2.3c-1.2 1.7-2.6 3.3-4.1 4.8l-2.8-2.9zm-58.4-17.5c.8-1.9 1.8-3.8 3.1-5.6l3.2 2.4c-1.1 1.5-2 3.1-2.7 4.7l-3.6-1.5zm64.2 9.4c.6-1.4 1-2.8 1.3-4.1.1-.3.1-.7.1-1l4 .5c0 .4-.1.8-.2 1.2-.3 1.7-.8 3.4-1.5 5l-3.7-1.6zm-57.6-19c1.5-1.4 3.1-2.8 4.8-4l2.3 3.3c-1.6 1.1-3 2.3-4.3 3.5l-2.8-2.8zm58.9 9.1c-.3-1.6-.8-3.1-1.6-4.6l3.5-1.9c1 1.8 1.6 3.7 2 5.7 0 .2.1.3.1.5l-3.9.6-.1-.3zm-49.6-15.7c1.8-.9 3.7-1.8 5.7-2.5l1.4 3.8c-1.8.6-3.5 1.4-5.2 2.3l-1.9-3.6zm41.3 3.9l2.2-3.3c1.8 1.2 3.5 2.6 4.8 4.2l-3 2.7c-1-1.4-2.4-2.5-4-3.6zm-30.7-7.9c.9-.2 1.9-.4 2.8-.6 1.1-.2 2.2-.4 3.3-.5l.5 4c-1 .1-2 .3-3 .5-.9.2-1.7.3-2.6.5l-1-3.9zm21.5 3.8l1-3.9c2.1.5 4.1 1.2 5.9 2.1l-1.7 3.6c-1.6-.7-3.4-1.3-5.2-1.8zm-10.3-5.2c2.1 0 4.2.1 6.2.4l-.5 4c-1.8-.2-3.7-.4-5.6-.3l-.1-4.1z"/><ellipse transform="rotate(-10.423 1173.688 706.142)" class="st3" cx="1174" cy="706.1" rx="26.2" ry="24.5"/><path d="M1147.8 710.9c-2.5-13.6 7.2-26.7 21.7-29.4 14.5-2.7 28.2 6.2 30.7 19.8 2.5 13.6-7.2 26.7-21.7 29.4-3.4.6-6.8.6-10 0-10.3-1.8-18.8-9.4-20.7-19.8zm21.8-28.4c-13.9 2.6-23.3 15.2-20.9 28.2l-.5.1.5-.1c2.4 13 15.7 21.5 29.6 19 13.9-2.6 23.3-15.2 20.9-28.2-1.8-9.9-10-17.3-20-19-3-.6-6.3-.6-9.6 0z"/><path class="st5" d="M623.2 1097.1l1.4 61.9s211.1 173.2 301 182c103.8 10.2 159.2-4.4 404.7-129.7 172.5-88 193.8-115.6 224.2-148.3 21.1-38.9 29.8-42.5 29.8-42.5l-961.1 76.6z"/><path class="st6" d="M618.9 909.1l4.7 203.9s239.3 169.1 343.9 180.5c103.3 11.2 257.7-57.7 379.6-119.9 131.7-67.2 200.2-104.8 237.2-153.1 29.1-73.1 29.2-292.4 29.2-292.4l-385.2 123-609.4 58z"/><path class="st7" d="M1593.4 668.7l20 59.4s14.5 15.8-241.7 103.6c-269.3 92.4-290.7 93.9-385.8 103.6-95.1 9.6-367-26.1-367-26.1l-1.2-62.2s244.5 18.7 348.6 9.7c116.9-10.2 296.2-67.6 386.4-95.3 90.2-27.8 210.4-70.6 225.2-79.1 13.5-7.9 15.5-13.6 15.5-13.6z"/><path class="st4" d="M1229.9 674.7L1102.1 708l76.2 52 78.3-47.1z"/><path class="st8" d="M1292.9 685c-5.6-1.2-8.2-3-8.2-5.5s2.6-4.3 8.2-5.5c4.4-1 10.2-1.5 16.3-1.5 6.2 0 12 .5 16.3 1.5 5.6 1.2 8.2 3 8.2 5.5s-2.6 4.3-8.2 5.5c-4.4 1-10.2 1.5-16.3 1.5-5.2 0-10.2-.4-14.3-1.1-.7-.1-1.4-.2-2-.4zm16.3-8.5c-11.4 0-18.3 1.8-20.2 3 1.9 1.2 8.8 3 20.2 3 11.4 0 18.3-1.8 20.2-3-1.9-1.2-8.8-3-20.2-3z"/><ellipse class="st4" cx="1309.2" cy="679.5" rx="22.5" ry="5"/><path class="st8" d="M927.8 769.4c-12.7-3.2-27.9-8.9-27.9-17.9 0-9 15.2-14.7 27.9-17.9 17.2-4.3 39.9-6.6 64.1-6.6 24.2 0 47 2.4 64.1 6.7 12.7 3.2 27.9 8.9 27.9 17.9 0 9-15.2 14.7-27.9 17.9-17.2 4.3-39.9 6.6-64.1 6.6-18.9 0-36.9-1.4-52.1-4.1-4.2-.8-8.3-1.7-12-2.6zm64.1-38.4c-23.9 0-46.3 2.3-63.2 6.5-15.6 3.9-24.8 9.1-24.8 14s9.3 10.1 24.8 14c16.8 4.2 39.3 6.5 63.2 6.5 23.9 0 46.3-2.3 63.2-6.5 15.6-3.9 24.8-9.1 24.8-14s-9.3-10.1-24.8-14c-3.7-.9-7.6-1.7-11.8-2.5-14.9-2.6-32.7-4-51.4-4z"/><ellipse class="st4" cx="991.9" cy="751.5" rx="90" ry="22.5"/><path transform="matrix(.9975 -.07003 .07003 .9975 -50.2 71.344)" class="st8" d="M991.4 728.9h2v45.4h-2z"/><path class="st8" d="M967.1 757.6c-7.7-2.2-11.7-5.3-11.7-9 0-7.9 18.6-12 37-12 9.5 0 18.5 1.1 25.3 3 7.7 2.2 11.7 5.3 11.7 9 0 7.9-18.6 12-37 12-6.7 0-13.1-.5-18.7-1.5-2.3-.5-4.6-1-6.6-1.5zm25.3-17c-21.7 0-33 5.2-33 8 0 .9 1.8 3.2 8.8 5.1 6.4 1.8 15 2.9 24.2 2.9 21.7 0 33-5.2 33-8 0-.9-1.8-3.2-8.8-5.1-1.9-.5-4-1-6.2-1.4-5.3-1-11.5-1.5-18-1.5z"/><ellipse class="st4" cx="992.4" cy="748.6" rx="35" ry="10"/><path class="st8" d="M898.4 754.7c0-.2 0-.5.1-.7 1-5.8 14.3-10.2 30.9-10.2 4.9 0 9.8.4 14.2 1.2 10.5 1.9 16.8 5.5 16.8 9.9v.1l-2-.1h1.6l-1.6-.1c0-3.1-6.1-6.3-15.2-7.9-4.2-.7-9-1.1-13.8-1.1-17 0-28.2 4.5-29 8.6v.4h-.9l.9-.1-.9.1h-.1.1l-1 .2-.1-.3zm2 0h-1 1zM1023.5 753.4c0-.2 0-.5.1-.7 1-5.8 14.3-10.2 30.9-10.2 4.9 0 9.8.4 14.2 1.2 10.5 1.9 16.8 5.5 16.8 9.9v.1l-2-.1h1.6l-1.6-.1c0-3.1-6.1-6.3-15.2-7.9-4.2-.7-9-1.1-13.8-1.1-17 0-28.2 4.5-29 8.6v.4h-.9l.9-.1-.9.1h-.1.1l-1 .2-.1-.3zm2 0h-1 1zM1315.5 660.2c-15.5-3.7-23.3-8.2-23.1-13.4.4-12.5 46.6-15.4 77.5-14.3 20.1.7 39.1 2.9 53.2 6.3 15.5 3.7 23.3 8.2 23.1 13.4-.4 12.5-46.6 15.4-77.5 14.3-15.7-.5-30.6-2-43.2-4.2-3.5-.7-6.8-1.4-10-2.1zm54.3-23.7c-44.5-1.6-73.2 5.1-73.4 10.4-.1 1.7 4.1 5.6 20 9.4 13.9 3.3 32.6 5.5 52.5 6.2 44.5 1.6 73.2-5.1 73.4-10.4.1-1.7-4.1-5.6-20-9.4-3.1-.7-6.4-1.4-9.9-2-12.4-2.2-27.1-3.6-42.6-4.2z"/><ellipse transform="rotate(-88 1369.347 649.51) scale(1.00001)" class="st4" cx="1369.3" cy="649.5" rx="15" ry="75"/><path class="st8" d="M1293.4 650.8l1.1-.1h.9c.2-1.4 7.6-4.1 20.9-4.4 5.2-.1 10.2.2 14.1.9 5.7 1 6.9 2.3 6.9 2.7h1l1 .2-.9-.2h1-1.1 1.1v-.1c0-2.1-2.9-3.6-8.6-4.6-4-.7-9.2-1.1-14.5-1-10.5.2-22.2 2.1-22.9 6v.6zM1398.8 652.1l1.1-.1h.9c.2-1.4 7.6-4.1 20.9-4.4 5.2-.1 10.2.2 14.1.9 5.7 1 6.9 2.3 6.9 2.7h1l1 .2-.9-.2h1-1.1 1.1v-.1c0-2.1-2.9-3.6-8.6-4.6-4-.7-9.2-1.1-14.5-1-10.5.2-22.2 2.1-22.9 6v.6z"/><path transform="rotate(-19.154 1379.473 656.578)" class="st8" d="M1378.4 646.4h2v20.2h-2z"/><path transform="rotate(-19.154 1364.64 642.792)" class="st8" d="M1363.5 632.7h2v20.2h-2z"/><path class="st8" d="M1347.6 654.3c-7.3-1.5-10.4-3.2-10.3-5.9.1-2.6 3.3-4.2 10.6-5.1 5.8-.8 13.5-1 21.6-.7 8.1.3 15.7 1.1 21.5 2.2 7.3 1.5 10.4 3.2 10.3 5.9-.1 2.6-3.3 4.2-10.6 5.1-5.8.8-13.5 1-21.6.7-7.2-.3-14.1-.9-19.5-1.9-.7-.1-1.3-.2-2-.3zm21.9-7.8c-14.9-.5-24.1.9-27.2 2 3 1.4 12.2 3.4 27 3.9 14.9.5 24.1-.9 27.2-2-3-1.3-12.2-3.4-27-3.9z"/><ellipse transform="rotate(-88 1369.347 649.51) scale(1.00001)" class="st4" cx="1369.3" cy="649.5" rx="5" ry="30"/><g><path d="M917.9 1196.9c.2 0 .3.1.5.1 3.3.3 6.2-2.1 6.5-5.4 0-.4 3.2-35.6 4.8-73.6 1.7-38.3-3.5-82-3.7-83.9-.4-3.3-3.4-5.6-6.7-5.2-3.3.4-5.6 3.4-5.2 6.7.1.4 5.3 44.6 3.6 81.9-1.6 37.7-4.7 72.7-4.8 73-.2 3.1 2 5.9 5 6.4z"/></g><g><path d="M885.6 1190.2c.2 0 .3.1.5.1 3.3.3 6.2-2.1 6.5-5.4 0-.4 3.2-35.6 4.8-73.6 1.7-38.3-3.5-82-3.7-83.9-.4-3.3-3.4-5.6-6.7-5.2-3.3.4-5.6 3.4-5.2 6.7.1.4 5.3 44.6 3.6 81.9-1.6 37.7-4.7 72.7-4.8 73-.2 3.1 2 5.9 5 6.4z"/></g><g><path class="st3" d="M994.2 680.8c3-16.7-18-24.5-36.7-51.1-17.5-25.1-37.5-63.5-37.5-63.5l120.5-21.4s16.5 27.3 32.2 53.4c15.7 26.1 39.9 38.5 42.1 49.1 1.6 7.5-4.4 13.4-4.4 13.4L1006.6 685l-12.4-4.2z"/></g><g><path class="st3" d="M555.3 889.8s-2.1 9.9-92.7-21.4c-66-22.8-100.6-34-100.6-34l9.3 166.1s124.3 49.3 148.9 59.8 33.6 11 33.6 11l1.5-181.5z"/></g><g><path d="M595.1 888.7s-10.5 2.2-29.1-13.3-37.2 3.6-37.2 3.6l19.9 19.8 1.5 141.4s17.6 15.3 32.4 17.9 18.7 3.3 18.7 3.3l-2.2-165.9-4-6.8z"/></g><g><path class="st2" d="M1500.7 935.7c-6.3 3.6-39.2 20.5-94.1 44.3-55 23.8-103 42.8-103 42.8s-11.7 3-15.3 23.7c-1.7 9.8 5.3 16.2 11.9 13.3s76.9-33.1 122.3-54.6c45.4-21.4 72-34 76.5-36.3 4.5-2.3 12.6-7.9 15-21.7 2.5-14.8-6.6-15.4-13.3-11.5z"/></g></g></svg>
